<svg xmlns:dc="http://purl.org/dc/elements/1.1/" xmlns:cc="http://creativecommons.org/ns#" xmlns:rdf="http://www.w3.org/1999/02/22-rdf-syntax-ns#" xmlns:svg="http://www.w3.org/2000/svg" xmlns="http://www.w3.org/2000/svg" height="161" width="398" xml:space="preserve" version="1.1" style=""><rect id="backgroundrect" width="100%" height="100%" x="0" y="0" fill="none" stroke="none"/><metadata id="metadata8"><rdf:RDF><cc:Work rdf:about=""><dc:format>image/svg+xml</dc:format><dc:type rdf:resource="http://purl.org/dc/dcmitype/StillImage"/></cc:Work></rdf:RDF></metadata><defs id="defs6"/><g class="currentLayer" style=""><title>Layer 1</title><g id="g10" class=""><g id="g12" stroke-width="0"><path id="path306" style="fill:#000000;fill-opacity:1;fill-rule:evenodd;stroke:none" d="m16.267008257109637,9.680204283449257 l-0.013333333198682148,54.45333278341788 c0.08399999915169755,3.6933332960349543 2.551999974227763,6.786666598129212 5.925333273494346,7.9066665868185115 c0,0 0.08533333247156576,0.06666666599341076 0.09066666575103866,0.11999999878813936 c0.00266666663973643,0.07999999919209287 -0.09066666575103866,0.15999999838418577 -0.09066666575103866,0.15999999838418577 h-5.925333273494346 h-3.786666628425729 h-0.3666666629637591 h-3.770666628587311 h-5.939999940012895 c0,0 -0.09466666571064329,-0.07999999919209287 -0.08933333243117042,-0.15999999838418577 c0.00266666663973643,-0.05333333279472861 0.08933333243117042,-0.11999999878813936 0.08933333243117042,-0.11999999878813936 c3.4293332987010476,-1.1333333218879824 5.923999940174477,-4.333333289571697 5.923999940174477,-8.106666584798743 l0.015999999838418575,-55.119999443351986 c0,-3.866666627617822 -1.1719999881641605,-7.3866665920699095 -6.155999937831547,-8.173333250792155 c-0.0626666660338061,-0.15999999838418577 0,-0.21333333117891437 0,-0.21333333117891437 l25.42933307652659,0.013333333198682148 c12.182666543635877,0 22.057333110579876,9.306666572680138 22.057333110579876,20.786666456745465 c0,8.599999913149984 -5.535999944092827,15.986666505219894 -13.439999864271602,19.14666647330756 c-1.8439999813777408,0.5199999947486037 -3.9119999604933415,0.8133333251196108 -6.1666666043904925,0.8133333251196108 c-5.431999945143106,0 -10.02933323204871,-1.746666649027361 -11.557333216617685,-4.146666624790147 c0,0 -0.06533333267354252,-0.4399999955565108 0.10666666558945719,-0.6133333271393786 c0.17733333154247263,-0.17333333158286796 0.633333326937402,-0.09333333239077503 0.633333326937402,-0.09333333239077503 c1.9346666471287794,1.6533333166365864 4.814666618044122,2.7066666393324756 8.02799991892652,2.7066666393324756 c1.521333317969633,0 2.9293333037504667,-0.2399999975762787 4.278666623457101,-0.6533333267354252 l0.7239999926884408,-0.22666666437759653 c5.065333282179347,-2.533333307749608 8.543999913715519,-7.773333254831691 8.543999913715519,-13.826666527033385 v-5.399999945466269 c0,-8.519999913957891 -6.913333263516693,-15.426666510875243 -15.44266651071366,-15.426666510875243 h-9.16933324073371 zm59.00266607080823,25.386666410290808 h-0.4479999954757201 l-0.005333333279472861,22.93333310173329 c0.2106666645391779,3.279999966875808 1.1119999887700909,9.50666657066037 7.533333257255412,10.479999894164166 l6.346666602572702,-0.10666666558945719 l0.6826666597725258,-0.07999999919209287 h0.35733332972468157 c5.098666615176053,0 9.369333238713944,-3.3466666328692187 10.899999889922654,-7.946666586414559 c0,0 0.2893333304114026,-0.013333333198682148 0.4333333289571698,0.07999999919209287 c0.08533333247156576,0.05333333279472861 0.18399999814181367,0.18666666478155003 0.18399999814181367,0.18666666478155003 l-2.2679999770958332,11.039999888508817 l-0.09866666567024793,0.5999999939406967 H80.80034093873132 l-5.986666606208283,0.06666666599341076 h-3.786666628425729 h-0.3639999963240227 h-3.770666628587311 h-5.942666606652632 c0,0 -0.09466666571064329,-0.07999999919209287 -0.08666666579143399,-0.15999999838418577 c0.005333333279472861,-0.05333333279472861 0.08666666579143399,-0.11999999878813936 0.08666666579143399,-0.11999999878813936 c3.431999965340784,-1.1333333218879824 5.926666606814214,-4.333333289571697 5.926666606814214,-8.106666584798743 l0.015999999838418575,-55.119999443351986 c0,-3.866666627617822 -1.174666654803897,-7.3866665920699095 -6.155999937831547,-8.173333250792155 c-0.06533333267354252,-0.15999999838418577 0,-0.21333333117891437 0,-0.21333333117891437 h22.442666440021785 l14.101333190926239,-0.42666666235782885 c0.12266666542787576,0 0.989333323342215,10.786666557733856 0.989333323342215,10.786666557733856 c0,0 -0.09599999903051148,0.14666666518550361 -0.1959999980206276,0.17333333158286796 c-0.08799999911130219,0.03999999959604646 -0.24666666417561972,-0.013333333198682148 -0.24666666417561972,-0.013333333198682148 c-0.8933333243117038,-4.173333291187512 -4.609333286784418,-7.319999926076497 -9.059999908504519,-7.319999926076497 l-14.005333191895726,-0.11999999878813936 l0.06533333267354252,6.173333270989833 l-0.005333333279472861,21.95999977822949 h0.4319999956373016 h11.750666547998575 c4.194666624305404,-0.13333333198682149 7.5773332568110625,-2.839999971319297 7.738666588515117,-6.226666603784563 c0,0 0.1253333320676122,-0.05333333279472861 0.20933333121930972,-0.05333333279472861 c0.07999999919209287,0 0.20266666461996863,0.05333333279472861 0.20266666461996863,0.05333333279472861 V41.02687063355097 c0,0 -0.14533333186563543,0.06666666599341076 -0.24266666421601507,0.06666666599341076 c-0.07466666591262006,-0.013333333198682148 -0.18666666478155003,-0.06666666599341076 -0.18666666478155003,-0.06666666599341076 c-0.3133333301690304,-3.2666666336771257 -3.6306666300011483,-5.853333274221462 -7.72133325535683,-5.9599999398109205 zm70.26799929037477,34.77333298216304 c25.515999742318023,0.18666666478155003 33.39333299609943,-13.906666526225477 33.35733299646299,-33.466666328692185 c-0.04933333283512396,-23.146666432912205 -16.594666499079796,-33.62666632707637 -39.263999603479185,-33.62666632707637 h-7.782666588070768 l-0.026666666397364303,6.933333263314716 l-0.007999999919209293,45.399999541512706 l0.10666666558945719,3.2933333000744898 c0,6.3333332693740205 5.135999948132363,11.466666550866645 11.469333217506382,11.466666550866645 c0,0 0.5053333282300532,0.013333333198682148 2.1479999783076935,0 zm-10.218666563469997,2.4799999749548793 h-3.5079999645732722 h-3.786666628425729 h-0.3666666629637591 h-3.770666628587311 h-5.942666606652632 c0,0 -0.09199999907090685,-0.07999999919209287 -0.08933333243117042,-0.15999999838418577 c0.005333333279472861,-0.05333333279472861 0.08933333243117042,-0.11999999878813936 0.08933333243117042,-0.11999999878813936 c3.4293332987010476,-1.1333333218879824 5.926666606814214,-4.333333289571697 5.926666606814214,-8.106666584798743 l0.015999999838418575,-55.119999443351986 c0,-3.866666627617822 -1.174666654803897,-7.3866665920699095 -6.155999937831547,-8.173333250792155 c-0.06533333267354252,-0.15999999838418577 0,-0.21333333117891437 0,-0.21333333117891437 l17.72133315436844,-0.013333333198682148 h13.514666530184224 c21.68533311433664,0 39.263999603479185,16.093333170809352 39.263999603479185,35.959999636845744 c0,19.853333132837715 -12.070666544766947,35.65333297327606 -39.263999603479185,35.959999636845744 h-7.223999927045987 zm92.30799906779636,-2.4799999749548793 c25.519999742277626,0.18666666478155003 33.399999662698775,-13.906666526225477 33.35999966310273,-33.466666328692185 c-0.03999999959604646,-23.146666432912205 -16.58666649916059,-33.62666632707637 -39.26666627011892,-33.62666632707637 h-7.773333254831691 l-0.026666666397364303,6.933333263314716 l-0.013333333198682148,45.399999541512706 l0.10666666558945719,3.2933333000744898 c0,6.3333332693740205 5.133333281492626,11.466666550866645 11.479999884065327,11.466666550866645 c0,0 0.49333332835123944,0.013333333198682148 2.1333333117891433,0 zm-10.213333230190523,2.4799999749548793 h-3.5066666312534043 h-3.786666628425729 h-0.37333332956310006 h-3.759999962028365 h-5.946666606612237 c0,0 -0.09333333239077503,-0.07999999919209287 -0.08799999911130219,-0.15999999838418577 c0.00266666663973643,-0.05333333279472861 0.08799999911130219,-0.11999999878813936 0.08799999911130219,-0.11999999878813936 c3.4266666320613113,-1.1333333218879824 5.933333273413555,-4.333333289571697 5.933333273413555,-8.106666584798743 l0.013333333198682148,-55.119999443351986 c0,-3.866666627617822 -1.1733333214840291,-7.3866665920699095 -6.159999937791151,-8.173333250792155 c-0.06533333267354252,-0.15999999838418577 0,-0.21333333117891437 0,-0.21333333117891437 l17.71999982104857,-0.013333333198682148 h13.519999863463697 c21.67999978105717,0 39.25333293692023,16.093333170809352 39.25333293692023,35.959999636845744 c0,19.853333132837715 -12.066666544807342,35.65333297327606 -39.25333293692023,35.959999636845744 h-7.2266665936857235 zm90.70666575063463,-68.69333263961042 l-0.42666666235782885,0.013333333198682148 l0.6933333263314717,-0.013333333198682148 zm-10.293333229382617,31.439999682492502 h-0.4533333287551929 v22.93333310173329 c0.19999999798023227,3.279999966875808 1.1066666554906182,9.50666657066037 7.533333257255412,10.479999894164166 l6.346666602572702,-0.10666666558945719 l0.6799999931327897,-0.07999999919209287 h0.3599999963644181 c5.09333328189658,0 9.359999905474867,-3.3466666328692187 10.893333223323314,-7.946666586414559 c0,0 0.2933333303710073,-0.013333333198682148 0.4399999955565108,0.07999999919209287 c0.07999999919209287,0.05333333279472861 0.17333333158286796,0.18666666478155003 0.17333333158286796,0.18666666478155003 l-2.2533333105772826,11.039999888508817 l-0.10666666558945719,0.5999999939406967 h-18.09333315061167 l-5.986666606208283,0.06666666599341076 h-3.7733332952270473 h-0.37333332956310006 h-3.7733332952270473 h-5.933333273413555 c0,0 -0.09333333239077503,-0.07999999919209287 -0.09333333239077503,-0.15999999838418577 c0,-0.05333333279472861 0.09333333239077503,-0.11999999878813936 0.09333333239077503,-0.11999999878813936 c3.4266666320613113,-1.1333333218879824 5.919999940214873,-4.333333289571697 5.919999940214873,-8.106666584798743 l0.013333333198682148,-55.119999443351986 c0,-3.866666627617822 -1.1733333214840291,-7.3866665920699095 -6.146666604592469,-8.173333250792155 c-0.06666666599341076,-0.15999999838418577 0,-0.21333333117891437 0,-0.21333333117891437 h22.439999773382052 l14.10666652420571,-0.42666666235782885 c0.10666666558945719,0 0.9866666567024789,10.786666557733856 0.9866666567024789,10.786666557733856 c0,0 -0.10666666558945719,0.14666666518550361 -0.19999999798023227,0.17333333158286796 c-0.07999999919209287,0.03999999959604646 -0.2399999975762787,-0.013333333198682148 -0.2399999975762787,-0.013333333198682148 c-0.8933333243117038,-4.173333291187512 -4.613333286744022,-7.319999926076497 -9.06666657510386,-7.319999926076497 h-2.1599999781865074 l-0.6799999931327897,0.013333333198682148 l0.4133333291591466,-0.013333333198682148 h0.266666663973643 h0.3066666635696894 l-12.146666543999434,-0.11999999878813936 l0.05333333279472861,6.173333270989833 v21.95999977822949 h0.4399999955565108 h11.74666654803897 c4.199999957584876,-0.13333333198682149 7.573333256851458,-2.839999971319297 7.733333255235644,-6.226666603784563 c0,0 0.13333333198682149,-0.05333333279472861 0.21333333117891437,-0.05333333279472861 c0.07999999919209287,0 0.19999999798023227,0.05333333279472861 0.19999999798023227,0.05333333279472861 V41.02687063355097 c0,0 -0.14666666518550361,0.06666666599341076 -0.2399999975762787,0.06666666599341076 c-0.07999999919209287,-0.013333333198682148 -0.18666666478155003,-0.06666666599341076 -0.18666666478155003,-0.06666666599341076 c-0.31999999676837154,-3.2666666336771257 -3.6266666300415435,-5.853333274221462 -7.719999922036962,-5.9599999398109205 zm56.14666609965052,5.1599999478899905 v23.906666425237088 c0.07999999919209287,3.6933332960349543 2.5599999741469723,6.786666598129212 5.919999940214873,7.9066665868185115 c0,0 0.09333333239077503,0.06666666599341076 0.09333333239077503,0.11999999878813936 c0,0.07999999919209287 -0.09333333239077503,0.15999999838418577 -0.09333333239077503,0.15999999838418577 h-5.919999940214873 h-3.786666628425729 h-0.3599999963644181 h-3.7733332952270473 h-5.946666606612237 c0,0 -0.09333333239077503,-0.07999999919209287 -0.07999999919209287,-0.15999999838418577 c0,-0.05333333279472861 0.07999999919209287,-0.11999999878813936 0.07999999919209287,-0.11999999878813936 c3.4399999652599935,-1.1333333218879824 5.933333273413555,-4.333333289571697 5.933333273413555,-8.106666584798743 l0.013333333198682148,-55.119999443351986 c0,-3.866666627617822 -1.1733333214840291,-7.3866665920699095 -6.159999937791151,-8.173333250792155 c-0.06666666599341076,-0.15999999838418577 0,-0.21333333117891437 0,-0.21333333117891437 h15.97333317202121 l5.759999941830688,0.013333333198682148 c12.186666543595482,0 22.05333311062027,9.306666572680138 22.05333311062027,20.786666456745465 c0,8.599999913149984 -5.5333332774530914,13.639999862251834 -13.439999864271602,16.813333163538186 c-0.3999999959604645,0.10666666558945719 -0.8266666583182932,0.21333333117891437 -1.2533333206761217,0.3066666635696894 c4.173333291187512,5.6399999430425485 22.786666436547787,30.733333022962345 23.67999976085949,31.493333015287227 c1.013333323099843,0.8666666579143396 2.5066666413522434,1.7733333154247255 3.6533332964389076,2.013333313001004 c1.1466666550866644,0.22666666437759653 1.559999984245811,0.22666666437759653 1.559999984245811,0.22666666437759653 c0,0 0.15999999838418577,0.2399999975762787 0.15999999838418577,0.42666666235782885 c0,0.27999999717232515 -0.15999999838418577,0.3599999963644181 -0.15999999838418577,0.3599999963644181 h-14.773333184139817 c0,0 -3.5066666312534043,-5.679999942638594 -6.453333268162158,-9.959999899415564 c-5.5866666102478195,-8.106666584798743 -14.29333318898726,-20.039999797619267 -16.213333169597487,-22.67999977095833 c-0.14666666518550361,0.05333333279472861 -0.2533333307749608,0.07999999919209287 -0.31999999676837154,0.07999999919209287 zm-0.03999999959604646,-37.039999625939004 l0.05333333279472861,6.4933332677582065 v27.813333052450954 c1.7999999818220898,-0.05333333279472861 3.786666628425729,-0.11999999878813936 6.21333327058588,-0.31999999676837154 c2.519999974550925,-0.21333333117891437 5.5866666102478195,-1.5066666514510825 5.5866666102478195,-1.5066666514510825 c5.226666613883402,-2.906666637312708 9.879999900223469,-6.826666597725259 9.31999990587882,-16.54666649956454 c-0.5599999943446503,-9.62666656944851 -7.186666594089677,-15.933333172425165 -15.706666508047567,-15.933333172425165 zm-291.20799705913726,101.4133323091764 c-1.7133333160306554,-4.186666624386193 -3.89066662737545,-7.239999926884405 -6.979999929510104,-9.719999901839286 c-4.967999949828967,-3.9866666264059614 -11.893333213224475,-5.786666608228051 -18.483999813333057,-5.786666608228051 c-16.699999831349388,0 -28.679999710365294,15.066666514510825 -28.679999710365294,33.66666632667242 c0,18.59999981216159 11.997333212174196,33.91999965744738 28.698666376843452,34.13333298862629 c19.10399980707178,0.2399999975762787 19.874666465955606,-6.719999932135801 19.874666465955606,-6.719999932135801 l0.023999999757627875,-16.653333165154002 c-0.08399999915169755,-3.6799999628362725 -2.5533333075476308,-6.786666598129212 -5.925333273494346,-7.893333253619831 c0,0 -0.07999999919209287,-0.06666666599341076 -0.08533333247156576,-0.13333333198682149 c-0.005333333279472861,-0.06666666599341076 0.08533333247156576,-0.15999999838418577 0.08533333247156576,-0.15999999838418577 h5.927999940134082 h3.785333295105861 h0.3653333296438908 h3.770666628587311 h5.945333273292369 c0,0 0.09066666575103866,0.09333333239077503 0.08266666583182936,0.15999999838418577 c-0.00266666663973643,0.06666666599341076 -0.08266666583182936,0.13333333198682149 -0.08266666583182936,0.13333333198682149 c-3.4346666319805212,1.1199999886893004 -5.92933327345395,4.319999956373015 -5.92933327345395,8.093333251600063 l0.5519999944254409,22.079999777017633 c-1.7533333156267021,0.07999999919209287 -8.023999918966915,0.5999999939406967 -12.614666539273179,1.9599999802062755 c-4.710666619094402,1.3999999858616254 -9.097333241460829,2.7333333057298397 -14.357333188340936,2.7333333057298397 c-21.341333117810642,0 -38.87199960743793,-13.199999866695324 -38.69733294253519,-36.973332959945594 c0.1479999985053719,-20.266666461996863 17.306666491889427,-37.37333295590606 38.64266627642059,-36.70666629597195 c10.825333224010034,0.3333333299670538 15.267999845810925,1.466666651855036 24.245333088483616,4.933333283512394 l0.6479999934559525,12.786666537536178 c0,0 -0.04933333283512396,0.21333333117891437 -0.37999999616244134,0.266666663973643 c-0.2893333304114026,0.03999999959604646 -0.4319999956373016,-0.19999999798023227 -0.4319999956373016,-0.19999999798023227 zm40.45599959144137,22.413333106984688 l-0.005333333279472861,23.906666425237088 c0.08533333247156576,3.6799999628362725 2.551999974227763,6.786666598129212 5.923999940174477,7.893333253619831 c0,0 0.08533333247156576,0.06666666599341076 0.08799999911130219,0.13333333198682149 c0.00266666663973643,0.06666666599341076 -0.08799999911130219,0.15999999838418577 -0.08799999911130219,0.15999999838418577 h-5.923999940174477 h-3.789333295065466 h-0.3653333296438908 h-3.7733332952270473 h-5.937333273373159 c0,0 -0.09333333239077503,-0.09333333239077503 -0.09066666575103866,-0.15999999838418577 c0.005333333279472861,-0.06666666599341076 0.09066666575103866,-0.13333333198682149 0.09066666575103866,-0.13333333198682149 c3.4293332987010476,-1.1199999886893004 5.925333273494346,-4.319999956373015 5.925333273494346,-8.093333251600063 l0.011999999878813937,-55.119999443351986 c0,-3.866666627617822 -1.1719999881641605,-7.399999925268591 -6.15333327119181,-8.173333250792155 c-0.06533333267354252,-0.15999999838418577 0,-0.21333333117891437 0,-0.21333333117891437 h15.971999838701343 h5.759999941830688 c12.182666543635877,0 22.05999977721961,9.306666572680138 22.05999977721961,20.79999978994415 c0,8.599999913149984 -5.5413332773723,13.639999862251834 -13.439999864271602,16.799999830339505 c-0.4119999958392784,0.11999999878813936 -0.8306666582778979,0.22666666437759653 -1.2586666539555944,0.31999999676837154 c4.171999957867643,5.6399999430425485 22.781333103268317,30.733333022962345 23.682666427499232,31.493333015287227 c1.018666656379316,0.8666666579143396 2.502666641392638,1.7733333154247255 3.6479999631594353,1.9999999798023218 c1.1466666550866644,0.2399999975762787 1.5679999841650205,0.2399999975762787 1.5679999841650205,0.2399999975762787 c0,0 0.1493333318252401,0.2399999975762787 0.1493333318252401,0.42666666235782885 c0,0.27999999717232515 -0.1493333318252401,0.3599999963644181 -0.1493333318252401,0.3599999963644181 h-14.773333184139817 c0,0 -3.518666631132218,-5.679999942638594 -6.458666601441631,-9.959999899415564 c-5.585333276927951,-8.106666584798743 -14.287999855707787,-20.053333130817947 -16.210666502957753,-22.67999977095833 c-0.1479999985053719,0.05333333279472861 -0.2626666640140383,0.07999999919209287 -0.3253333300478444,0.06666666599341076 zm-0.05333333279472861,-37.039999625939004 l0.05999999939406967,6.4933332677582065 l-0.006666666599341076,27.813333052450954 c1.7986666485022216,-0.05333333279472861 3.7959999616648066,-0.11999999878813936 6.218666603865353,-0.31999999676837154 c2.517333307911189,-0.21333333117891437 5.587999943567687,-1.5199999846497647 5.587999943567687,-1.5199999846497647 c5.229333280523138,-2.8933333041140257 9.874666566943997,-6.826666597725259 9.317333239239083,-16.53333316636586 c-0.5573333277049134,-9.62666656944851 -7.183999927449941,-15.933333172425165 -15.715999841286646,-15.933333172425165 zm62.021332706989874,41.279999583119924 c5.635999943082943,18.426666480578724 22.45599977322047,29.613333034273044 37.570666287246546,24.98666641433034 c15.119999847305554,-4.613333286744022 22.81333310294515,-23.293333098097712 17.186666493101285,-41.71999957867643 c-5.6399999430425485,-18.426666480578724 -22.45733310654034,-29.613333034273044 -37.57733295384589,-24.98666641433034 c-15.119999847305554,4.626666619942705 -22.810666436305418,23.306666431296392 -17.179999826501945,41.71999957867643 zm-10.15599989743619,-8.359999915573706 c0,-20.786666456745465 16.801333163659372,-37.626666286681015 37.53333295429024,-37.626666286681015 c20.726666457351396,0 37.5266662876909,16.83999982993555 37.5266662876909,37.626666286681015 c0,20.773333123546784 -16.799999830339505,37.626666286681015 -37.5266662876909,37.626666286681015 c-20.73199979063087,0 -37.53333295429024,-16.853333163134234 -37.53333295429024,-37.626666286681015 zm148.15333183715668,33.22666633111591 c0.5066666615499215,-3.0799999688955757 0.8533333247156573,-7.613333256447506 0.9599999903051147,-9.279999906282773 c-5.65333327624123,7.253333260083087 -14.893333182927957,12.919999869523 -24.253333088402822,13.719999861443931 l-3.4133332988626295,0.11999999878813936 c-13.399999864675557,0 -24.266666421601506,-10.853333223727267 -24.266666421601506,-24.266666421601506 l0.026666666397364303,-4.706666619134797 l-0.026666666397364303,-2.4533333085575144 l0.013333333198682148,-33.973332990242106 c-0.09333333239077503,-3.6933332960349543 -2.5599999741469723,-6.7999999313278945 -5.919999940214873,-7.9066665868185115 c0,0 -0.09333333239077503,-0.06666666599341076 -0.09333333239077503,-0.13333333198682149 c0,-0.06666666599341076 0.09333333239077503,-0.15999999838418577 0.09333333239077503,-0.15999999838418577 h5.919999940214873 h3.786666628425729 h0.3599999963644181 h3.7733332952270473 h5.946666606612237 c0,0 0.09333333239077503,0.09333333239077503 0.07999999919209287,0.15999999838418577 c0,0.06666666599341076 -0.07999999919209287,0.13333333198682149 -0.07999999919209287,0.13333333198682149 c-3.4266666320613113,1.1333333218879824 -5.933333273413555,4.319999956373015 -5.933333273413555,8.093333251600063 v25.41333307668817 v13.346666531880826 c0,11.99999987881393 9.239999906686727,21.75999978024926 20.746666457149416,22.05333311062027 l1.1333333218879824,-0.026666666397364303 c12.23999987639021,-0.15999999838418577 22.11999977661368,-10.706666558541762 22.11999977661368,-23.67999976085949 l0.03999999959604646,-37.1866662911245 c-0.07999999919209287,-3.6933332960349543 -2.54666664094829,-6.7999999313278945 -5.919999940214873,-7.9066665868185115 c0,0 -0.07999999919209287,-0.06666666599341076 -0.09333333239077503,-0.13333333198682149 c0,-0.06666666599341076 0.09333333239077503,-0.15999999838418577 0.09333333239077503,-0.15999999838418577 h5.919999940214873 h3.786666628425729 h0.37333332956310006 h3.7733332952270473 h5.933333273413555 c0,0 0.09333333239077503,0.09333333239077503 0.09333333239077503,0.15999999838418577 c-0.013333333198682148,0.06666666599341076 -0.09333333239077503,0.13333333198682149 -0.09333333239077503,0.13333333198682149 c-3.4266666320613113,1.1333333218879824 -5.919999940214873,4.319999956373015 -5.919999940214873,8.093333251600063 l-0.013333333198682148,52.29333280523137 c0,3.85333329441914 3.493333298054722,10.226666563389205 8.479999914361844,10.99999988891277 c0.06666666599341076,0.15999999838418577 0,0.21333333117891437 0,0.21333333117891437 H302.5870053656099 c0,0 0.3599999963644181,-1.7999999818220898 0.5599999943446503,-2.9599999701074364 zm51.95999947526432,-59.73333273009601 l-0.013333333198682148,54.45333278341788 c0.07999999919209287,3.6799999628362725 2.54666664094829,6.786666598129212 5.919999940214873,7.893333253619831 c0,0 0.09333333239077503,0.06666666599341076 0.09333333239077503,0.13333333198682149 c0,0.06666666599341076 -0.09333333239077503,0.15999999838418577 -0.09333333239077503,0.15999999838418577 h-5.919999940214873 h-3.786666628425729 h-0.37333332956310006 h-3.759999962028365 h-5.946666606612237 c0,0 -0.09333333239077503,-0.09333333239077503 -0.09333333239077503,-0.15999999838418577 c0.013333333198682148,-0.06666666599341076 0.09333333239077503,-0.13333333198682149 0.09333333239077503,-0.13333333198682149 c3.4266666320613113,-1.1333333218879824 5.919999940214873,-4.319999956373015 5.919999940214873,-8.093333251600063 l0.026666666397364303,-55.133332776550674 c0,-3.85333329441914 -1.1733333214840291,-7.3866665920699095 -6.159999937791151,-8.159999917593474 c-0.06666666599341076,-0.15999999838418577 0,-0.21333333117891437 0,-0.21333333117891437 h25.42666640988685 c12.186666543595482,0 22.05333311062027,9.306666572680138 22.05333311062027,20.786666456745465 c0,8.599999913149984 -5.5333332774530914,15.986666505219894 -13.439999864271602,19.14666647330756 c-1.8399999814181365,0.5333333279472856 -3.906666627213869,0.8266666583182932 -6.159999937791151,0.8266666583182932 c-5.439999945062315,0 -10.026666565408973,-1.746666649027361 -11.55999988325742,-4.1599999579888305 c0,0 -0.06666666599341076,-0.42666666235782885 0.10666666558945719,-0.5999999939406967 c0.17333333158286796,-0.18666666478155003 0.6399999935367432,-0.09333333239077503 0.6399999935367432,-0.09333333239077503 c1.933333313808911,1.6533333166365864 4.813333284724255,2.693333306133794 8.026666585606652,2.693333306133794 c1.5199999846497647,0 2.9199999705113897,-0.22666666437759653 4.266666623578287,-0.6533333267354252 l0.7333333259275179,-0.22666666437759653 c5.066666615499216,-2.533333307749608 8.546666580355256,-7.7599999216330104 8.546666580355256,-13.813333193834703 v-5.399999945466269 c0,-8.519999913957891 -6.919999930116034,-15.439999844073924 -15.439999844073924,-15.439999844073924 h-9.173333240693315 l0.06666666599341076,6.186666604188515 " stroke-width="0"/></g></g></g></svg>